{
	"asset":{
		"generator":"Khronos glTF Blender I/O v3.5.30",
		"version":"2.0"
	},
	"scene":0,
	"scenes":[
		{
			"name":"Scene",
			"nodes":[
				0,
				1
			]
		}
	],
	"nodes":[
		{
			"mesh":0,
			"name":"Circle",
			"rotation":[
				0,
				-0.7176162004470825,
				0,
				0.6964388489723206
			],
			"scale":[
				0.09889364242553711,
				0.09889364242553711,
				0.09889364242553711
			],
			"translation":[
				0.0007657911628484726,
				0,
				0.013162899762392044
			]
		},
		{
			"mesh":1,
			"name":"Circle.001",
			"rotation":[
				0.7836438417434692,
				-0.35713666677474976,
				-0.4669856131076813,
				0.200699120759964
			],
			"scale":[
				0.012852550484240055,
				0.018493719398975372,
				0.01628429815173149
			],
			"translation":[
				0.06288549304008484,
				0.10300230979919434,
				-0.07426664978265762
			]
		}
	],
	"materials":[
		{
			"doubleSided":true,
			"name":"Material",
			"pbrMetallicRoughness":{
				"baseColorTexture":{
					"index":0
				},
				"metallicFactor":0,
				"roughnessFactor":0.5
			}
		},
		{
			"doubleSided":true,
			"name":"Material.004",
			"pbrMetallicRoughness":{
				"baseColorTexture":{
					"index":1
				},
				"metallicFactor":0,
				"roughnessFactor":0.5
			}
		}
	],
	"meshes":[
		{
			"name":"Circle.001",
			"primitives":[
				{
					"attributes":{
						"POSITION":0,
						"TEXCOORD_0":1,
						"NORMAL":2
					},
					"indices":3,
					"material":0
				}
			]
		},
		{
			"name":"Circle",
			"primitives":[
				{
					"attributes":{
						"POSITION":4,
						"TEXCOORD_0":5,
						"NORMAL":6
					},
					"indices":7,
					"material":1
				}
			]
		}
	],
	"textures":[
		{
			"sampler":0,
			"source":0
		},
		{
			"sampler":0,
			"source":1
		}
	],
	"images":[
		{
			"bufferView":4,
			"mimeType":"image/png",
			"name":"Poring"
		},
		{
			"bufferView":9,
			"mimeType":"image/png",
			"name":"Circle"
		}
	],
	"accessors":[
		{
			"bufferView":0,
			"componentType":5126,
			"count":1917,
			"max":[
				1.3357963562011719,
				1.8689247369766235,
				1.3342851400375366
			],
			"min":[
				-1.3337441682815552,
				0.0005023558624088764,
				-1.3351073265075684
			],
			"type":"VEC3"
		},
		{
			"bufferView":1,
			"componentType":5126,
			"count":1917,
			"type":"VEC2"
		},
		{
			"bufferView":2,
			"componentType":5126,
			"count":1917,
			"type":"VEC3"
		},
		{
			"bufferView":3,
			"componentType":5123,
			"count":2892,
			"type":"SCALAR"
		},
		{
			"bufferView":5,
			"componentType":5126,
			"count":640,
			"max":[
				1,
				2.8381996154785156,
				7.22241735458374
			],
			"min":[
				-3.754528522491455,
				-0.021912796422839165,
				-1
			],
			"type":"VEC3"
		},
		{
			"bufferView":6,
			"componentType":5126,
			"count":640,
			"type":"VEC2"
		},
		{
			"bufferView":7,
			"componentType":5126,
			"count":640,
			"type":"VEC3"
		},
		{
			"bufferView":8,
			"componentType":5123,
			"count":1128,
			"type":"SCALAR"
		}
	],
	"bufferViews":[
		{
			"buffer":0,
			"byteLength":23004,
			"byteOffset":0,
			"target":34962
		},
		{
			"buffer":0,
			"byteLength":15336,
			"byteOffset":23004,
			"target":34962
		},
		{
			"buffer":0,
			"byteLength":23004,
			"byteOffset":38340,
			"target":34962
		},
		{
			"buffer":0,
			"byteLength":5784,
			"byteOffset":61344,
			"target":34963
		},
		{
			"buffer":0,
			"byteLength":28225,
			"byteOffset":67128
		},
		{
			"buffer":0,
			"byteLength":7680,
			"byteOffset":95356,
			"target":34962
		},
		{
			"buffer":0,
			"byteLength":5120,
			"byteOffset":103036,
			"target":34962
		},
		{
			"buffer":0,
			"byteLength":7680,
			"byteOffset":108156,
			"target":34962
		},
		{
			"buffer":0,
			"byteLength":2256,
			"byteOffset":115836,
			"target":34963
		},
		{
			"buffer":0,
			"byteLength":28110,
			"byteOffset":118092
		}
	],
	"samplers":[
		{
			"magFilter":9729,
			"minFilter":9987
		}
	],
	"buffers":[
		{
			"byteLength":146204,
			"uri":"data:application/octet-stream;base64,"
		}
	]
}
