{
	"asset":{
		"generator":"Khronos glTF Blender I/O v3.5.30",
		"version":"2.0"
	},
	"scene":0,
	"scenes":[
		{
			"name":"Scene",
			"nodes":[
				0
			]
		}
	],
	"nodes":[
		{
			"mesh":0,
			"name":"Circle",
			"scale":[
				0.09889364242553711,
				0.09889364242553711,
				0.09889364242553711
			]
		}
	],
	"materials":[
		{
			"doubleSided":true,
			"name":"Material.002",
			"pbrMetallicRoughness":{
				"baseColorTexture":{
					"index":0
				},
				"metallicFactor":0,
				"roughnessFactor":0.5
			}
		}
	],
	"meshes":[
		{
			"name":"Circle.001",
			"primitives":[
				{
					"attributes":{
						"POSITION":0,
						"TEXCOORD_0":1,
						"NORMAL":2
					},
					"indices":3,
					"material":0
				}
			]
		}
	],
	"textures":[
		{
			"sampler":0,
			"source":0
		}
	],
	"images":[
		{
			"bufferView":4,
			"mimeType":"image/png",
			"name":"Poring"
		}
	],
	"accessors":[
		{
			"bufferView":0,
			"componentType":5126,
			"count":1274,
			"max":[
				1.3357210159301758,
				1.8633557558059692,
				1.3338375091552734
			],
			"min":[
				-1.3337675333023071,
				0.00030530261574313045,
				-1.3346208333969116
			],
			"type":"VEC3"
		},
		{
			"bufferView":1,
			"componentType":5126,
			"count":1274,
			"type":"VEC2"
		},
		{
			"bufferView":2,
			"componentType":5126,
			"count":1274,
			"type":"VEC3"
		},
		{
			"bufferView":3,
			"componentType":5123,
			"count":1854,
			"type":"SCALAR"
		}
	],
	"bufferViews":[
		{
			"buffer":0,
			"byteLength":15288,
			"byteOffset":0,
			"target":34962
		},
		{
			"buffer":0,
			"byteLength":10192,
			"byteOffset":15288,
			"target":34962
		},
		{
			"buffer":0,
			"byteLength":15288,
			"byteOffset":25480,
			"target":34962
		},
		{
			"buffer":0,
			"byteLength":3708,
			"byteOffset":40768,
			"target":34963
		},
		{
			"buffer":0,
			"byteLength":28212,
			"byteOffset":44476
		}
	],
	"samplers":[
		{
			"magFilter":9729,
			"minFilter":9987
		}
	],
	"buffers":[
		{
			"byteLength":72688,
			"uri":"data:application/octet-stream;base64,"
		}
	]
}
