{
	"asset":{
		"generator":"Khronos glTF Blender I/O v3.5.30",
		"version":"2.0"
	},
	"scene":0,
	"scenes":[
		{
			"name":"Scene",
			"nodes":[
				3
			]
		}
	],
	"nodes":[
		{
			"name":"Bone",
			"rotation":[
				1.4210854715202004e-14,
				-3.552713678800501e-15,
				-1.7763568394002505e-15,
				1
			],
			"translation":[
				4.5858938868548194e-10,
				4.909411766007565e-10,
				-1.941495408885885e-09
			]
		},
		{
			"mesh":0,
			"name":"Circle",
			"skin":0
		},
		{
			"mesh":1,
			"name":"Circle.001",
			"skin":0
		},
		{
			"children":[
				1,
				2,
				0
			],
			"name":"Armature",
			"scale":[
				0.1358211189508438,
				0.1358211189508438,
				0.1358211189508438
			],
			"translation":[
				0.001609903760254383,
				0.0032046884298324585,
				-0.0016587069258093834
			]
		}
	],
	"animations":[
		{
			"channels":[
				{
					"sampler":0,
					"target":{
						"node":0,
						"path":"translation"
					}
				},
				{
					"sampler":1,
					"target":{
						"node":0,
						"path":"rotation"
					}
				},
				{
					"sampler":2,
					"target":{
						"node":0,
						"path":"scale"
					}
				},
				{
					"sampler":3,
					"target":{
						"node":3,
						"path":"translation"
					}
				},
				{
					"sampler":4,
					"target":{
						"node":3,
						"path":"rotation"
					}
				},
				{
					"sampler":5,
					"target":{
						"node":3,
						"path":"scale"
					}
				}
			],
			"name":"enemy_action_attack",
			"samplers":[
				{
					"input":13,
					"interpolation":"LINEAR",
					"output":14
				},
				{
					"input":13,
					"interpolation":"LINEAR",
					"output":15
				},
				{
					"input":13,
					"interpolation":"LINEAR",
					"output":16
				},
				{
					"input":13,
					"interpolation":"LINEAR",
					"output":17
				},
				{
					"input":13,
					"interpolation":"LINEAR",
					"output":18
				},
				{
					"input":13,
					"interpolation":"LINEAR",
					"output":19
				}
			]
		},
		{
			"channels":[
				{
					"sampler":0,
					"target":{
						"node":0,
						"path":"translation"
					}
				},
				{
					"sampler":1,
					"target":{
						"node":0,
						"path":"rotation"
					}
				},
				{
					"sampler":2,
					"target":{
						"node":0,
						"path":"scale"
					}
				},
				{
					"sampler":3,
					"target":{
						"node":3,
						"path":"translation"
					}
				},
				{
					"sampler":4,
					"target":{
						"node":3,
						"path":"rotation"
					}
				},
				{
					"sampler":5,
					"target":{
						"node":3,
						"path":"scale"
					}
				}
			],
			"name":"enemy_action_walk",
			"samplers":[
				{
					"input":20,
					"interpolation":"LINEAR",
					"output":21
				},
				{
					"input":20,
					"interpolation":"LINEAR",
					"output":22
				},
				{
					"input":20,
					"interpolation":"LINEAR",
					"output":23
				},
				{
					"input":20,
					"interpolation":"LINEAR",
					"output":24
				},
				{
					"input":20,
					"interpolation":"LINEAR",
					"output":25
				},
				{
					"input":20,
					"interpolation":"LINEAR",
					"output":26
				}
			]
		}
	],
	"materials":[
		{
			"doubleSided":true,
			"name":"Material",
			"pbrMetallicRoughness":{
				"baseColorTexture":{
					"index":0
				},
				"metallicFactor":0,
				"roughnessFactor":0.5
			}
		},
		{
			"doubleSided":true,
			"name":"Material.004",
			"pbrMetallicRoughness":{
				"baseColorTexture":{
					"index":1
				},
				"metallicFactor":0,
				"roughnessFactor":0.5
			}
		}
	],
	"meshes":[
		{
			"name":"Circle.001",
			"primitives":[
				{
					"attributes":{
						"POSITION":0,
						"TEXCOORD_0":1,
						"NORMAL":2,
						"JOINTS_0":3,
						"WEIGHTS_0":4
					},
					"indices":5,
					"material":0
				}
			]
		},
		{
			"name":"Circle",
			"primitives":[
				{
					"attributes":{
						"POSITION":7,
						"TEXCOORD_0":8,
						"NORMAL":9,
						"JOINTS_0":10,
						"WEIGHTS_0":11
					},
					"indices":12,
					"material":1
				}
			]
		}
	],
	"textures":[
		{
			"sampler":0,
			"source":0
		},
		{
			"sampler":0,
			"source":1
		}
	],
	"images":[
		{
			"bufferView":6,
			"mimeType":"image/png",
			"name":"Poring"
		},
		{
			"bufferView":14,
			"mimeType":"image/png",
			"name":"Circle"
		}
	],
	"skins":[
		{
			"inverseBindMatrices":6,
			"joints":[
				0
			],
			"name":"Armature"
		}
	],
	"accessors":[
		{
			"bufferView":0,
			"componentType":5126,
			"count":1917,
			"max":[
				0.12413287162780762,
				0.18482477962970734,
				0.13891611993312836
			],
			"min":[
				-0.1397353559732437,
				4.967982749803923e-05,
				-0.12496602535247803
			],
			"type":"VEC3"
		},
		{
			"bufferView":1,
			"componentType":5126,
			"count":1917,
			"type":"VEC2"
		},
		{
			"bufferView":2,
			"componentType":5126,
			"count":1917,
			"type":"VEC3"
		},
		{
			"bufferView":3,
			"componentType":5121,
			"count":1917,
			"type":"VEC4"
		},
		{
			"bufferView":4,
			"componentType":5126,
			"count":1917,
			"type":"VEC4"
		},
		{
			"bufferView":5,
			"componentType":5123,
			"count":2892,
			"type":"SCALAR"
		},
		{
			"bufferView":7,
			"componentType":5126,
			"count":1,
			"type":"MAT4"
		},
		{
			"bufferView":8,
			"componentType":5126,
			"count":640,
			"max":[
				0.06918518245220184,
				0.11287474632263184,
				-0.0696435496211052
			],
			"min":[
				-0.0798482894897461,
				0.09339910000562668,
				-0.09484928101301193
			],
			"type":"VEC3"
		},
		{
			"bufferView":9,
			"componentType":5126,
			"count":640,
			"type":"VEC2"
		},
		{
			"bufferView":10,
			"componentType":5126,
			"count":640,
			"type":"VEC3"
		},
		{
			"bufferView":11,
			"componentType":5121,
			"count":640,
			"type":"VEC4"
		},
		{
			"bufferView":12,
			"componentType":5126,
			"count":640,
			"type":"VEC4"
		},
		{
			"bufferView":13,
			"componentType":5123,
			"count":1128,
			"type":"SCALAR"
		},
		{
			"bufferView":15,
			"componentType":5126,
			"count":40,
			"max":[
				1.625
			],
			"min":[
				0
			],
			"type":"SCALAR"
		},
		{
			"bufferView":16,
			"componentType":5126,
			"count":40,
			"type":"VEC3"
		},
		{
			"bufferView":17,
			"componentType":5126,
			"count":40,
			"type":"VEC4"
		},
		{
			"bufferView":18,
			"componentType":5126,
			"count":40,
			"type":"VEC3"
		},
		{
			"bufferView":19,
			"componentType":5126,
			"count":40,
			"type":"VEC3"
		},
		{
			"bufferView":20,
			"componentType":5126,
			"count":40,
			"type":"VEC4"
		},
		{
			"bufferView":21,
			"componentType":5126,
			"count":40,
			"type":"VEC3"
		},
		{
			"bufferView":22,
			"componentType":5126,
			"count":24,
			"max":[
				0.9583333333333334
			],
			"min":[
				0
			],
			"type":"SCALAR"
		},
		{
			"bufferView":23,
			"componentType":5126,
			"count":24,
			"type":"VEC3"
		},
		{
			"bufferView":24,
			"componentType":5126,
			"count":24,
			"type":"VEC4"
		},
		{
			"bufferView":25,
			"componentType":5126,
			"count":24,
			"type":"VEC3"
		},
		{
			"bufferView":26,
			"componentType":5126,
			"count":24,
			"type":"VEC3"
		},
		{
			"bufferView":27,
			"componentType":5126,
			"count":24,
			"type":"VEC4"
		},
		{
			"bufferView":28,
			"componentType":5126,
			"count":24,
			"type":"VEC3"
		}
	],
	"bufferViews":[
		{
			"buffer":0,
			"byteLength":23004,
			"byteOffset":0,
			"target":34962
		},
		{
			"buffer":0,
			"byteLength":15336,
			"byteOffset":23004,
			"target":34962
		},
		{
			"buffer":0,
			"byteLength":23004,
			"byteOffset":38340,
			"target":34962
		},
		{
			"buffer":0,
			"byteLength":7668,
			"byteOffset":61344,
			"target":34962
		},
		{
			"buffer":0,
			"byteLength":30672,
			"byteOffset":69012,
			"target":34962
		},
		{
			"buffer":0,
			"byteLength":5784,
			"byteOffset":99684,
			"target":34963
		},
		{
			"buffer":0,
			"byteLength":28225,
			"byteOffset":105468
		},
		{
			"buffer":0,
			"byteLength":64,
			"byteOffset":133696
		},
		{
			"buffer":0,
			"byteLength":7680,
			"byteOffset":133760,
			"target":34962
		},
		{
			"buffer":0,
			"byteLength":5120,
			"byteOffset":141440,
			"target":34962
		},
		{
			"buffer":0,
			"byteLength":7680,
			"byteOffset":146560,
			"target":34962
		},
		{
			"buffer":0,
			"byteLength":2560,
			"byteOffset":154240,
			"target":34962
		},
		{
			"buffer":0,
			"byteLength":10240,
			"byteOffset":156800,
			"target":34962
		},
		{
			"buffer":0,
			"byteLength":2256,
			"byteOffset":167040,
			"target":34963
		},
		{
			"buffer":0,
			"byteLength":28110,
			"byteOffset":169296
		},
		{
			"buffer":0,
			"byteLength":160,
			"byteOffset":197408
		},
		{
			"buffer":0,
			"byteLength":480,
			"byteOffset":197568
		},
		{
			"buffer":0,
			"byteLength":640,
			"byteOffset":198048
		},
		{
			"buffer":0,
			"byteLength":480,
			"byteOffset":198688
		},
		{
			"buffer":0,
			"byteLength":480,
			"byteOffset":199168
		},
		{
			"buffer":0,
			"byteLength":640,
			"byteOffset":199648
		},
		{
			"buffer":0,
			"byteLength":480,
			"byteOffset":200288
		},
		{
			"buffer":0,
			"byteLength":96,
			"byteOffset":200768
		},
		{
			"buffer":0,
			"byteLength":288,
			"byteOffset":200864
		},
		{
			"buffer":0,
			"byteLength":384,
			"byteOffset":201152
		},
		{
			"buffer":0,
			"byteLength":288,
			"byteOffset":201536
		},
		{
			"buffer":0,
			"byteLength":288,
			"byteOffset":201824
		},
		{
			"buffer":0,
			"byteLength":384,
			"byteOffset":202112
		},
		{
			"buffer":0,
			"byteLength":288,
			"byteOffset":202496
		}
	],
	"samplers":[
		{
			"magFilter":9729,
			"minFilter":9987
		}
	],
	"buffers":[
		{
			"byteLength":202784,
			"uri":"data:application/octet-stream;base64,"
		}
	]
}
