{
	"asset":{
		"generator":"Khronos glTF Blender I/O v3.5.30",
		"version":"2.0"
	},
	"extensionsUsed":[
		"KHR_lights_punctual"
	],
	"extensionsRequired":[
		"KHR_lights_punctual"
	],
	"extensions":{
		"KHR_lights_punctual":{
			"lights":[
				{
					"color":[
						1,
						1,
						1
					],
					"intensity":54351.41306588226,
					"type":"point",
					"name":"Light"
				}
			]
		}
	},
	"scene":0,
	"scenes":[
		{
			"name":"Scene",
			"nodes":[
				3,
				4,
				5
			]
		}
	],
	"nodes":[
		{
			"name":"Bone",
			"rotation":[
				-0.7071067690849304,
				-1.7522716693033112e-15,
				-1.2793253598413629e-14,
				0.7071067690849304
			],
			"translation":[
				1.3899119633009605e-09,
				4.909402884223368e-10,
				-3.804139669938422e-09
			]
		},
		{
			"mesh":0,
			"name":"Circle",
			"skin":0
		},
		{
			"mesh":1,
			"name":"Circle.001",
			"skin":0
		},
		{
			"children":[
				1,
				2,
				0
			],
			"name":"Armature",
			"scale":[
				0.1358211189508438,
				0.1358211189508438,
				0.1358211189508438
			],
			"translation":[
				0.001609903760254383,
				0.0032046884298324585,
				-0.0016587069258093834
			]
		},
		{
			"extensions":{
				"KHR_lights_punctual":{
					"light":0
				}
			},
			"name":"Light",
			"rotation":[
				-0.28416627645492554,
				0.7269423007965088,
				0.34203392267227173,
				0.5232754945755005
			],
			"translation":[
				4.076245307922363,
				5.903861999511719,
				-1.0054539442062378
			]
		},
		{
			"camera":0,
			"name":"Camera",
			"rotation":[
				-0.20997299253940582,
				0.3857799470424652,
				0.09062844514846802,
				0.8937962055206299
			],
			"translation":[
				7.358891487121582,
				4.958309173583984,
				6.925790786743164
			]
		}
	],
	"cameras":[
		{
			"name":"Camera",
			"perspective":{
				"aspectRatio":1.7777777777777777,
				"yfov":0.39959652046304894,
				"zfar":100,
				"znear":0.10000000149011612
			},
			"type":"perspective"
		}
	],
	"animations":[
		{
			"channels":[
				{
					"sampler":0,
					"target":{
						"node":0,
						"path":"translation"
					}
				},
				{
					"sampler":1,
					"target":{
						"node":0,
						"path":"rotation"
					}
				},
				{
					"sampler":2,
					"target":{
						"node":0,
						"path":"scale"
					}
				},
				{
					"sampler":3,
					"target":{
						"node":3,
						"path":"translation"
					}
				},
				{
					"sampler":4,
					"target":{
						"node":3,
						"path":"rotation"
					}
				},
				{
					"sampler":5,
					"target":{
						"node":3,
						"path":"scale"
					}
				}
			],
			"name":"enemy_action_attack",
			"samplers":[
				{
					"input":15,
					"interpolation":"LINEAR",
					"output":16
				},
				{
					"input":15,
					"interpolation":"LINEAR",
					"output":17
				},
				{
					"input":15,
					"interpolation":"LINEAR",
					"output":18
				},
				{
					"input":15,
					"interpolation":"LINEAR",
					"output":19
				},
				{
					"input":15,
					"interpolation":"LINEAR",
					"output":20
				},
				{
					"input":15,
					"interpolation":"LINEAR",
					"output":21
				}
			]
		},
		{
			"channels":[
				{
					"sampler":0,
					"target":{
						"node":0,
						"path":"translation"
					}
				},
				{
					"sampler":1,
					"target":{
						"node":0,
						"path":"rotation"
					}
				},
				{
					"sampler":2,
					"target":{
						"node":0,
						"path":"scale"
					}
				},
				{
					"sampler":3,
					"target":{
						"node":3,
						"path":"translation"
					}
				},
				{
					"sampler":4,
					"target":{
						"node":3,
						"path":"rotation"
					}
				},
				{
					"sampler":5,
					"target":{
						"node":3,
						"path":"scale"
					}
				}
			],
			"name":"enemy_action_walk",
			"samplers":[
				{
					"input":22,
					"interpolation":"LINEAR",
					"output":23
				},
				{
					"input":22,
					"interpolation":"LINEAR",
					"output":24
				},
				{
					"input":22,
					"interpolation":"LINEAR",
					"output":25
				},
				{
					"input":22,
					"interpolation":"LINEAR",
					"output":26
				},
				{
					"input":22,
					"interpolation":"LINEAR",
					"output":27
				},
				{
					"input":22,
					"interpolation":"LINEAR",
					"output":28
				}
			]
		},
		{
			"channels":[
				{
					"sampler":0,
					"target":{
						"node":0,
						"path":"translation"
					}
				},
				{
					"sampler":1,
					"target":{
						"node":0,
						"path":"rotation"
					}
				},
				{
					"sampler":2,
					"target":{
						"node":0,
						"path":"scale"
					}
				},
				{
					"sampler":3,
					"target":{
						"node":3,
						"path":"translation"
					}
				},
				{
					"sampler":4,
					"target":{
						"node":3,
						"path":"rotation"
					}
				},
				{
					"sampler":5,
					"target":{
						"node":3,
						"path":"scale"
					}
				}
			],
			"name":"enemy_action_walk_Armature.001",
			"samplers":[
				{
					"input":22,
					"interpolation":"LINEAR",
					"output":29
				},
				{
					"input":22,
					"interpolation":"LINEAR",
					"output":30
				},
				{
					"input":22,
					"interpolation":"LINEAR",
					"output":31
				},
				{
					"input":22,
					"interpolation":"LINEAR",
					"output":32
				},
				{
					"input":22,
					"interpolation":"LINEAR",
					"output":33
				},
				{
					"input":22,
					"interpolation":"LINEAR",
					"output":34
				}
			]
		}
	],
	"materials":[
		{
			"doubleSided":true,
			"name":"Material.001",
			"pbrMetallicRoughness":{
				"baseColorTexture":{
					"index":0
				},
				"metallicFactor":0,
				"roughnessFactor":0.5
			}
		},
		{
			"doubleSided":true,
			"name":"Material.004",
			"pbrMetallicRoughness":{
				"baseColorTexture":{
					"index":1
				},
				"metallicFactor":0,
				"roughnessFactor":0.5
			}
		}
	],
	"meshes":[
		{
			"name":"Circle.001",
			"primitives":[
				{
					"attributes":{
						"POSITION":0,
						"TEXCOORD_0":1,
						"NORMAL":2,
						"TANGENT":3,
						"JOINTS_0":4,
						"WEIGHTS_0":5
					},
					"indices":6,
					"material":0
				}
			]
		},
		{
			"name":"Circle",
			"primitives":[
				{
					"attributes":{
						"POSITION":8,
						"TEXCOORD_0":9,
						"NORMAL":10,
						"TANGENT":11,
						"JOINTS_0":12,
						"WEIGHTS_0":13
					},
					"indices":14,
					"material":1
				}
			]
		}
	],
	"textures":[
		{
			"sampler":0,
			"source":0
		},
		{
			"sampler":0,
			"source":1
		}
	],
	"images":[
		{
			"mimeType":"image/png",
			"name":"Poring",
			"uri":"texture/Poring.png"
		},
		{
			"mimeType":"image/png",
			"name":"Circle",
			"uri":"texture/Circle.png"
		}
	],
	"skins":[
		{
			"inverseBindMatrices":7,
			"joints":[
				0
			],
			"name":"Armature"
		}
	],
	"accessors":[
		{
			"bufferView":0,
			"componentType":5126,
			"count":2187,
			"max":[
				0.12413287162780762,
				0.18482479453086853,
				0.13891611993312836
			],
			"min":[
				-0.1397353559732437,
				4.9679896619636565e-05,
				-0.12496602535247803
			],
			"type":"VEC3"
		},
		{
			"bufferView":1,
			"componentType":5126,
			"count":2187,
			"type":"VEC2"
		},
		{
			"bufferView":2,
			"componentType":5126,
			"count":2187,
			"type":"VEC3"
		},
		{
			"bufferView":3,
			"componentType":5126,
			"count":2187,
			"type":"VEC4"
		},
		{
			"bufferView":4,
			"componentType":5121,
			"count":2187,
			"type":"VEC4"
		},
		{
			"bufferView":5,
			"componentType":5126,
			"count":2187,
			"type":"VEC4"
		},
		{
			"bufferView":6,
			"componentType":5123,
			"count":2892,
			"type":"SCALAR"
		},
		{
			"bufferView":7,
			"componentType":5126,
			"count":1,
			"type":"MAT4"
		},
		{
			"bufferView":8,
			"componentType":5126,
			"count":992,
			"max":[
				0.06918518245220184,
				0.11287473887205124,
				-0.0696435421705246
			],
			"min":[
				-0.0798482894897461,
				0.09339909255504608,
				-0.09484928101301193
			],
			"type":"VEC3"
		},
		{
			"bufferView":9,
			"componentType":5126,
			"count":992,
			"type":"VEC2"
		},
		{
			"bufferView":10,
			"componentType":5126,
			"count":992,
			"type":"VEC3"
		},
		{
			"bufferView":11,
			"componentType":5126,
			"count":992,
			"type":"VEC4"
		},
		{
			"bufferView":12,
			"componentType":5121,
			"count":992,
			"type":"VEC4"
		},
		{
			"bufferView":13,
			"componentType":5126,
			"count":992,
			"type":"VEC4"
		},
		{
			"bufferView":14,
			"componentType":5123,
			"count":1128,
			"type":"SCALAR"
		},
		{
			"bufferView":15,
			"componentType":5126,
			"count":40,
			"max":[
				1.625
			],
			"min":[
				0
			],
			"type":"SCALAR"
		},
		{
			"bufferView":16,
			"componentType":5126,
			"count":40,
			"type":"VEC3"
		},
		{
			"bufferView":17,
			"componentType":5126,
			"count":40,
			"type":"VEC4"
		},
		{
			"bufferView":18,
			"componentType":5126,
			"count":40,
			"type":"VEC3"
		},
		{
			"bufferView":19,
			"componentType":5126,
			"count":40,
			"type":"VEC3"
		},
		{
			"bufferView":20,
			"componentType":5126,
			"count":40,
			"type":"VEC4"
		},
		{
			"bufferView":21,
			"componentType":5126,
			"count":40,
			"type":"VEC3"
		},
		{
			"bufferView":22,
			"componentType":5126,
			"count":24,
			"max":[
				0.9583333333333334
			],
			"min":[
				0
			],
			"type":"SCALAR"
		},
		{
			"bufferView":23,
			"componentType":5126,
			"count":24,
			"type":"VEC3"
		},
		{
			"bufferView":24,
			"componentType":5126,
			"count":24,
			"type":"VEC4"
		},
		{
			"bufferView":25,
			"componentType":5126,
			"count":24,
			"type":"VEC3"
		},
		{
			"bufferView":26,
			"componentType":5126,
			"count":24,
			"type":"VEC3"
		},
		{
			"bufferView":27,
			"componentType":5126,
			"count":24,
			"type":"VEC4"
		},
		{
			"bufferView":28,
			"componentType":5126,
			"count":24,
			"type":"VEC3"
		},
		{
			"bufferView":29,
			"componentType":5126,
			"count":24,
			"type":"VEC3"
		},
		{
			"bufferView":30,
			"componentType":5126,
			"count":24,
			"type":"VEC4"
		},
		{
			"bufferView":31,
			"componentType":5126,
			"count":24,
			"type":"VEC3"
		},
		{
			"bufferView":32,
			"componentType":5126,
			"count":24,
			"type":"VEC3"
		},
		{
			"bufferView":33,
			"componentType":5126,
			"count":24,
			"type":"VEC4"
		},
		{
			"bufferView":34,
			"componentType":5126,
			"count":24,
			"type":"VEC3"
		}
	],
	"bufferViews":[
		{
			"buffer":0,
			"byteLength":26244,
			"byteOffset":0,
			"target":34962
		},
		{
			"buffer":0,
			"byteLength":17496,
			"byteOffset":26244,
			"target":34962
		},
		{
			"buffer":0,
			"byteLength":26244,
			"byteOffset":43740,
			"target":34962
		},
		{
			"buffer":0,
			"byteLength":34992,
			"byteOffset":69984,
			"target":34962
		},
		{
			"buffer":0,
			"byteLength":8748,
			"byteOffset":104976,
			"target":34962
		},
		{
			"buffer":0,
			"byteLength":34992,
			"byteOffset":113724,
			"target":34962
		},
		{
			"buffer":0,
			"byteLength":5784,
			"byteOffset":148716,
			"target":34963
		},
		{
			"buffer":0,
			"byteLength":64,
			"byteOffset":154500
		},
		{
			"buffer":0,
			"byteLength":11904,
			"byteOffset":154564,
			"target":34962
		},
		{
			"buffer":0,
			"byteLength":7936,
			"byteOffset":166468,
			"target":34962
		},
		{
			"buffer":0,
			"byteLength":11904,
			"byteOffset":174404,
			"target":34962
		},
		{
			"buffer":0,
			"byteLength":15872,
			"byteOffset":186308,
			"target":34962
		},
		{
			"buffer":0,
			"byteLength":3968,
			"byteOffset":202180,
			"target":34962
		},
		{
			"buffer":0,
			"byteLength":15872,
			"byteOffset":206148,
			"target":34962
		},
		{
			"buffer":0,
			"byteLength":2256,
			"byteOffset":222020,
			"target":34963
		},
		{
			"buffer":0,
			"byteLength":160,
			"byteOffset":224276
		},
		{
			"buffer":0,
			"byteLength":480,
			"byteOffset":224436
		},
		{
			"buffer":0,
			"byteLength":640,
			"byteOffset":224916
		},
		{
			"buffer":0,
			"byteLength":480,
			"byteOffset":225556
		},
		{
			"buffer":0,
			"byteLength":480,
			"byteOffset":226036
		},
		{
			"buffer":0,
			"byteLength":640,
			"byteOffset":226516
		},
		{
			"buffer":0,
			"byteLength":480,
			"byteOffset":227156
		},
		{
			"buffer":0,
			"byteLength":96,
			"byteOffset":227636
		},
		{
			"buffer":0,
			"byteLength":288,
			"byteOffset":227732
		},
		{
			"buffer":0,
			"byteLength":384,
			"byteOffset":228020
		},
		{
			"buffer":0,
			"byteLength":288,
			"byteOffset":228404
		},
		{
			"buffer":0,
			"byteLength":288,
			"byteOffset":228692
		},
		{
			"buffer":0,
			"byteLength":384,
			"byteOffset":228980
		},
		{
			"buffer":0,
			"byteLength":288,
			"byteOffset":229364
		},
		{
			"buffer":0,
			"byteLength":288,
			"byteOffset":229652
		},
		{
			"buffer":0,
			"byteLength":384,
			"byteOffset":229940
		},
		{
			"buffer":0,
			"byteLength":288,
			"byteOffset":230324
		},
		{
			"buffer":0,
			"byteLength":288,
			"byteOffset":230612
		},
		{
			"buffer":0,
			"byteLength":384,
			"byteOffset":230900
		},
		{
			"buffer":0,
			"byteLength":288,
			"byteOffset":231284
		}
	],
	"samplers":[
		{
			"magFilter":9729,
			"minFilter":9987
		}
	],
	"buffers":[
		{
			"byteLength":231572,
			"uri":"Poring.bin"
		}
	]
}
